<?xml version="1.0" standalone="no"?>
<!DOCTYPE svg PUBLIC "-//W3C//DTD SVG 20010904//EN"
 "http://www.w3.org/TR/2001/REC-SVG-20010904/DTD/svg10.dtd">
<svg version="1.0" xmlns="http://www.w3.org/2000/svg"
 width="146.000000pt" height="146.000000pt" viewBox="0 0 146.000000 146.000000"
 preserveAspectRatio="xMidYMid meet">
<metadata>
Created by potrace 1.14, written by Peter Selinger 2001-2017
</metadata>
<g transform="translate(0.000000,146.000000) scale(0.100000,-0.100000)"
fill="#000000" stroke="none">
<path d="M554 1441 c-27 -10 -76 -32 -109 -48 -56 -29 -63 -36 -97 -106 -36
-72 -37 -78 -28 -129 8 -42 7 -73 -5 -134 -11 -54 -17 -155 -19 -318 -4 -293
-1 -304 104 -406 38 -37 83 -73 100 -80 33 -13 32 -9 16 -107 -1 -7 -14 -26
-29 -41 -32 -34 -28 -67 7 -56 43 13 103 48 197 114 108 76 203 131 269 155
88 33 175 69 183 75 4 4 1 24 -6 46 -21 63 -15 183 11 226 28 44 29 110 3 175
-10 26 -21 84 -25 128 -3 44 -8 94 -11 110 -2 17 -6 60 -9 96 -10 113 -15 126
-65 167 -57 47 -180 121 -212 128 -13 2 -64 7 -114 10 -49 3 -95 7 -101 8 -6
2 -33 -4 -60 -13z"/>
</g>
</svg>
